<?xml version="1.0" standalone="no"?>
<!DOCTYPE svg PUBLIC "-//W3C//DTD SVG 20010904//EN"
 "http://www.w3.org/TR/2001/REC-SVG-20010904/DTD/svg10.dtd">
<svg version="1.0" xmlns="http://www.w3.org/2000/svg"
 width="500.000000pt" height="500.000000pt" viewBox="0 0 500.000000 500.000000"
 preserveAspectRatio="xMidYMid meet">
<metadata>
Created by potrace 1.11, written by Peter Selinger 2001-2013
</metadata>
<g transform="translate(0.000000,500.000000) scale(0.100000,-0.100000)"
fill="#000000" stroke="none">
<path d="M93 4965 c3 -19 1 -37 -4 -40 -5 -4 -9 -19 -9 -35 0 -41 30 -48 66
-15 22 20 35 25 56 21 21 -4 30 -1 38 14 6 11 20 20 30 20 11 0 28 9 37 20 10
11 32 23 50 26 78 15 34 24 -113 24 l-157 0 6 -35z"/>
<path d="M840 4990 c0 -5 5 -10 10 -10 6 0 10 5 10 10 0 6 -4 10 -10 10 -5 0
-10 -4 -10 -10z"/>
<path d="M983 4994 c3 -4 -1 -13 -9 -21 -8 -9 -12 -18 -9 -22 7 -6 35 27 35
41 0 4 -5 8 -12 8 -6 0 -9 -3 -5 -6z"/>
<path d="M1018 4978 c-2 -11 -12 -26 -23 -32 -36 -20 -47 -34 -30 -38 12 -2
10 -9 -11 -31 -21 -23 -31 -27 -55 -22 -16 4 -34 3 -41 -2 -18 -11 -68 -10
-68 1 0 6 -6 3 -12 -6 -13 -16 -78 -31 -78 -18 0 3 -21 5 -46 4 -38 -2 -43 0
-33 12 14 18 8 18 -25 0 -15 -7 -49 -14 -76 -15 -29 0 -62 -8 -81 -20 -23 -14
-37 -17 -45 -10 -16 13 -49 -3 -64 -31 -11 -21 -30 -27 -30 -9 0 17 -28 40
-35 29 -3 -5 -15 -10 -26 -10 -10 0 -19 -7 -19 -15 0 -8 -4 -15 -9 -15 -4 0
-6 11 -3 25 2 14 0 25 -7 25 -5 0 -8 -6 -5 -14 4 -11 -6 -17 -37 -23 -25 -5
-46 -16 -53 -28 -6 -11 -17 -24 -24 -28 -15 -10 -52 -81 -52 -101 0 -9 11 -18
25 -22 33 -8 32 -22 -2 -30 -48 -10 -49 -12 -10 -13 22 -1 37 -6 37 -13 0 -7
5 -5 11 5 14 23 29 13 21 -15 -5 -19 -4 -20 10 -7 9 7 14 17 12 20 -2 4 4 13
13 20 13 12 17 12 21 1 3 -10 11 -7 29 10 l25 23 -6 -22 c-9 -27 -4 -28 33 -8
16 8 31 11 34 8 4 -3 9 1 12 9 5 13 11 13 30 4 13 -6 21 -15 18 -21 -2 -5 4 0
16 13 11 13 22 18 26 12 4 -7 12 -7 25 0 26 14 33 12 26 -6 -5 -14 -1 -16 22
-11 38 8 62 -7 36 -21 -18 -11 -18 -11 1 -27 11 -9 15 -14 9 -11 -7 3 -14 -1
-18 -9 -3 -8 0 -15 7 -15 8 0 7 -4 -3 -10 -13 -9 -12 -13 7 -28 15 -11 21 -24
18 -37 -6 -21 45 -85 67 -85 5 0 8 -6 5 -12 -3 -9 6 -13 26 -14 17 -1 33 -6
35 -13 2 -6 21 -11 42 -11 24 0 40 -5 44 -15 3 -8 16 -15 28 -15 32 0 141
-119 126 -137 -8 -10 -6 -13 5 -13 9 0 18 -4 21 -8 7 -11 -124 -14 -138 -3 -6
4 -24 11 -40 15 -35 9 -107 66 -125 100 -25 45 -93 64 -125 34 -11 -10 -27
-18 -35 -18 -32 -1 -71 -46 -92 -104 -21 -60 -21 -143 -1 -227 7 -26 4 -72 -9
-155 -26 -165 -25 -228 3 -254 16 -14 24 -17 29 -8 4 7 6 15 3 19 -2 4 2 9 10
12 13 5 26 -55 26 -127 0 -26 -3 -28 -27 -23 -15 3 -40 -2 -56 -10 -22 -11
-106 -70 -125 -88 -2 -2 7 -1 20 2 22 5 22 4 -3 -14 -43 -29 -77 -67 -88 -97
-14 -35 -3 -85 49 -210 22 -55 40 -104 40 -110 0 -6 10 -27 22 -46 12 -19 23
-41 24 -49 6 -35 28 -72 40 -67 14 5 13 -8 -7 -149 -21 -148 -68 -275 -127
-339 -20 -23 -47 -54 -58 -70 l-21 -29 -11 31 c-10 30 -32 44 -32 22 0 -5 -7
-10 -15 -10 -9 0 -15 -6 -14 -12 5 -42 -2 -78 -16 -78 -8 0 -15 -5 -15 -10 0
-6 6 -9 13 -8 7 2 13 -9 15 -25 2 -19 -1 -27 -12 -27 -10 0 -16 -9 -16 -21 0
-18 2 -19 15 -9 19 15 20 -2 3 -29 -9 -15 -9 -25 0 -46 7 -14 12 -41 12 -60 0
-19 5 -37 10 -40 6 -3 10 -14 10 -23 0 -9 5 -24 10 -32 8 -13 12 -13 27 4 12
12 14 20 6 23 -15 6 36 123 54 123 11 0 19 -34 14 -62 0 -5 7 -8 16 -9 11 0
13 -2 5 -6 -14 -6 -64 -100 -87 -165 -8 -24 -33 -133 -55 -244 l-40 -200 0
-577 0 -577 2500 0 2500 0 0 2173 0 2173 -73 -3 c-59 -2 -68 -1 -47 8 14 6 46
11 73 9 l47 -1 0 320 0 321 -1989 0 -1990 0 -3 -22z m1042 -3 c11 -13 10 -14
-4 -9 -9 3 -16 10 -16 15 0 13 6 11 20 -6z m-840 1 c0 -3 -4 -8 -10 -11 -5 -3
-10 -1 -10 4 0 6 5 11 10 11 6 0 10 -2 10 -4z m280 -36 c0 -5 -2 -10 -4 -10
-3 0 -8 5 -11 10 -3 6 -1 10 4 10 6 0 11 -4 11 -10z m-450 -16 c0 -8 -4 -12
-10 -9 -5 3 -10 10 -10 16 0 5 5 9 10 9 6 0 10 -7 10 -16z m2117 -80 c-3 -3
-12 -4 -19 -1 -8 3 -5 6 6 6 11 1 17 -2 13 -5z m1153 -48 c0 -3 -4 -8 -10 -11
-5 -3 -10 -1 -10 4 0 6 5 11 10 11 6 0 10 -2 10 -4z m-1045 -86 c3 -5 -1 -10
-10 -10 -9 0 -13 5 -10 10 3 6 8 10 10 10 2 0 7 -4 10 -10z m-1765 -29 c0 -5
-9 -7 -20 -4 -11 3 -20 7 -20 9 0 2 9 4 20 4 11 0 20 -4 20 -9z m-494 -34 c8
-4 14 -16 14 -25 0 -14 4 -13 18 6 11 14 24 21 34 17 8 -3 23 2 33 11 14 15
18 15 26 3 5 -8 9 -18 9 -24 0 -5 4 -3 10 5 5 8 12 11 16 7 4 -4 14 -2 21 5
11 9 16 9 23 -1 9 -15 70 -23 70 -9 0 5 6 8 12 6 7 -3 13 -13 13 -24 0 -14 7
-19 29 -19 16 -1 31 -6 34 -13 8 -24 21 -11 34 30 l12 41 13 -31 c14 -35 20
-37 43 -21 13 9 12 10 -2 5 -10 -3 -18 -1 -18 5 0 5 17 9 37 7 28 -2 38 1 38
12 1 8 7 14 15 12 8 -2 22 -4 32 -5 18 -1 14 -17 -5 -17 -7 0 -18 -9 -25 -20
-7 -11 -19 -20 -28 -20 -8 0 -12 5 -8 11 4 7 0 10 -11 7 -18 -3 -50 -98 -33
-98 4 0 8 5 8 10 0 6 5 10 10 10 6 0 10 -6 10 -14 0 -16 -27 -29 -41 -20 -5 3
-9 0 -9 -5 0 -6 -9 -11 -20 -11 -26 0 -26 -30 -1 -37 17 -4 36 -31 28 -39 -7
-7 -81 16 -88 27 -6 10 -11 5 -18 -14 -6 -15 -15 -27 -21 -27 -6 0 -9 -4 -5
-9 6 -11 -33 -51 -50 -51 -19 0 -65 -58 -59 -73 12 -31 -73 -43 -129 -19 -35
15 -37 17 -20 30 16 13 14 13 -21 7 -34 -6 -38 -5 -28 8 10 12 7 15 -18 20
-16 4 -30 13 -30 20 0 7 -18 23 -39 35 -21 12 -42 29 -45 38 -5 13 -9 14 -21
4 -10 -9 -15 -9 -15 -1 0 6 -9 11 -20 11 -11 0 -20 7 -20 15 0 8 9 15 20 15
11 0 20 -4 20 -10 0 -5 11 -10 25 -10 14 0 25 -4 25 -10 0 -5 8 -10 17 -10 15
0 14 2 -3 15 -10 8 -27 15 -36 15 -10 0 -22 9 -28 20 -8 15 -17 19 -34 14 -20
-5 -23 -2 -23 25 0 19 5 31 14 31 16 0 17 22 1 38 -9 9 -9 12 1 12 10 0 11 3
2 14 -10 12 -6 15 18 21 17 4 33 5 37 3 3 -2 9 4 14 13 5 9 23 16 41 17 18 0
41 10 53 22 15 14 22 17 25 8 2 -7 10 -17 17 -21z m914 23 c0 -5 -5 -10 -11
-10 -5 0 -7 5 -4 10 3 6 8 10 11 10 2 0 4 -4 4 -10z m-283 -6 c-3 -3 -12 -4
-19 -1 -8 3 -5 6 6 6 11 1 17 -2 13 -5z m1598 -4 c3 -5 2 -10 -4 -10 -5 0 -13
5 -16 10 -3 6 -2 10 4 10 5 0 13 -4 16 -10z m-1894 -13 c-7 -7 -14 -8 -21 -1
-6 6 -2 10 12 11 16 2 18 -1 9 -10z m154 3 c3 -5 -1 -10 -9 -10 -9 0 -16 5
-16 10 0 6 4 10 9 10 6 0 13 -4 16 -10z m943 -108 c2 -7 -2 -10 -12 -6 -9 3
-16 11 -16 16 0 13 23 5 28 -10z m-68 -12 c0 -5 -7 -10 -15 -10 -8 0 -15 5
-15 10 0 6 7 10 15 10 8 0 15 -4 15 -10z m-825 -10 c3 -5 -3 -10 -14 -10 -12
0 -21 5 -21 10 0 6 6 10 14 10 8 0 18 -4 21 -10z m750 -10 c6 -4 30 -7 55 -5
25 1 59 0 77 -3 29 -4 32 -6 26 -33 -4 -20 -1 -29 7 -29 10 0 10 -3 0 -15 -7
-9 -16 -12 -19 -8 -3 4 -14 9 -24 9 -14 2 -15 -1 -6 -12 6 -8 18 -14 25 -14 8
0 14 -3 14 -7 0 -17 49 -28 107 -23 34 3 61 3 60 0 -1 -3 1 -6 6 -7 18 -7 28
-1 37 20 6 15 9 17 9 6 1 -9 -6 -22 -14 -29 -8 -7 -15 -16 -15 -19 0 -12 93
-41 131 -41 43 0 89 -32 89 -63 0 -17 2 -19 10 -7 7 12 12 11 30 -5 12 -11 31
-39 42 -62 11 -24 25 -43 30 -43 6 0 8 7 4 15 -3 8 -1 15 5 15 5 0 12 -13 15
-29 6 -28 9 -29 43 -25 22 2 31 1 23 -5 -11 -7 -11 -10 0 -22 7 -8 26 -29 41
-48 26 -32 27 -35 11 -52 -16 -18 -16 -19 5 -19 13 0 19 -4 16 -10 -4 -6 -16
-10 -28 -9 -42 4 -63 -1 -48 -10 8 -5 9 -11 3 -15 -6 -3 -23 4 -39 17 -41 35
-66 46 -107 49 -21 1 -36 7 -36 15 0 7 -7 13 -15 13 -8 0 -15 8 -15 18 0 10
-11 29 -24 41 -19 18 -33 22 -58 18 -46 -7 -148 -48 -184 -74 -17 -12 -43 -25
-60 -29 -16 -4 -34 -11 -41 -16 -7 -5 -22 -7 -34 -3 -14 5 -19 4 -15 -4 4 -6
0 -11 -9 -11 -24 0 -83 -43 -89 -65 -6 -24 -9 -22 44 -26 25 -2 50 -10 55 -16
11 -15 100 -33 156 -33 22 0 39 -4 39 -9 0 -5 14 -14 30 -20 65 -22 50 -31
-243 -140 -327 -123 -378 -136 -404 -110 -14 14 -60 -11 -70 -37 -4 -10 -9
-12 -18 -4 -21 18 -29 -37 -10 -67 9 -13 14 -31 11 -38 -3 -8 -1 -17 5 -21 7
-4 6 -10 -1 -19 -8 -9 -25 -12 -53 -9 -23 2 -62 6 -86 9 -57 5 -88 35 -97 91
-5 37 -10 44 -29 44 -12 0 -29 7 -36 16 -7 9 -22 20 -34 25 -11 5 -27 13 -35
19 -8 5 -26 14 -40 20 -14 5 -50 24 -81 42 -122 71 -173 98 -186 98 -7 0 -12
6 -10 13 1 7 -7 11 -23 10 -14 -1 -19 0 -12 3 18 8 15 21 -7 27 -21 5 -57 54
-47 64 9 9 117 8 140 -2 16 -7 17 -6 7 13 -14 26 -14 32 -1 32 6 0 10 -7 10
-15 0 -20 26 -19 34 1 11 28 6 39 -24 56 -31 17 -42 42 -15 32 30 -12 14 4
-20 20 -19 10 -42 28 -51 41 -15 22 -14 26 5 46 12 13 21 28 21 35 0 7 8 19
18 26 10 7 22 26 26 42 4 15 10 26 13 23 8 -8 43 11 43 23 0 6 -9 10 -19 10
-11 0 -22 4 -26 9 -3 6 9 7 30 4 44 -7 46 8 3 36 l-33 22 30 -7 c17 -4 34 -10
38 -14 17 -15 200 1 249 21 26 10 56 19 67 19 13 0 21 7 21 16 0 12 7 14 30 9
20 -4 49 0 80 11 41 15 50 22 50 41 0 15 -8 27 -22 33 -15 6 -17 9 -7 9 9 1
26 -8 39 -19 13 -11 28 -20 34 -20 6 0 3 7 -7 14 -15 12 -16 14 -2 20 8 3 22
3 30 -1 9 -3 22 2 30 13 8 11 15 14 15 8 0 -6 17 -11 38 -12 57 -2 115 -9 135
-17 12 -5 17 -2 17 10 0 9 -4 13 -10 10 -5 -3 -10 0 -10 9 0 8 -2 21 -5 28 -4
11 3 14 29 12 27 -2 34 0 29 11 -3 8 0 15 7 15 6 0 9 4 6 9 -4 5 -3 16 0 25 6
16 45 13 69 -4z m-635 -20 c-20 -13 -33 -13 -25 0 3 6 14 10 23 10 15 0 15 -2
2 -10z m-145 -10 c-3 -5 -11 -10 -16 -10 -6 0 -7 5 -4 10 3 6 11 10 16 10 6 0
7 -4 4 -10z m1105 -6 c0 -2 -9 -4 -21 -4 -11 0 -18 4 -14 10 5 8 35 3 35 -6z
m-1060 1 c0 -3 -9 -15 -20 -27 -22 -24 -26 -18 -8 12 12 19 28 27 28 15z m202
-27 c-6 -6 -15 -7 -22 -3 -8 5 -6 11 7 20 20 15 32 0 15 -17z m-992 13 c0 -5
-11 -8 -25 -8 -13 0 -22 3 -19 8 3 5 14 9 25 9 10 0 19 -4 19 -9z m900 -6 c0
-8 -4 -15 -10 -15 -5 0 -10 7 -10 15 0 8 5 15 10 15 6 0 10 -7 10 -15z m-1046
-20 c-7 -17 -20 -20 -28 -6 -4 5 0 12 6 14 23 9 28 7 22 -8z m101 -5 c4 -6 -6
-10 -22 -9 -25 0 -26 1 -8 9 11 5 21 9 22 9 1 1 5 -3 8 -9z m775 0 c0 -5 -9
-10 -20 -10 -11 0 -20 5 -20 10 0 6 9 10 20 10 11 0 20 -4 20 -10z m107 -3
c26 5 34 3 29 -6 -4 -6 -13 -11 -19 -10 -11 2 -58 -14 -79 -27 -5 -4 -2 9 8
27 9 19 19 29 21 22 3 -7 17 -9 40 -6z m-822 -7 c3 -5 -1 -10 -9 -10 -9 0 -19
0 -23 -1 -4 0 -9 4 -11 10 -5 14 35 14 43 1z m1050 0 c-3 -5 -15 -10 -26 -10
-10 0 -19 5 -19 10 0 6 12 10 26 10 14 0 23 -4 19 -10z m1300 0 c-3 -5 -14
-10 -23 -9 -14 0 -13 2 3 9 27 11 27 11 20 0z m-1605 -10 c0 -5 -4 -10 -10
-10 -5 0 -10 5 -10 10 0 6 5 10 10 10 6 0 10 -4 10 -10z m170 -13 c0 -1 -11
-2 -25 -2 -25 0 -31 6 -19 18 6 5 44 -9 44 -16z m207 17 c-3 -3 -12 -4 -19 -1
-8 3 -5 6 6 6 11 1 17 -2 13 -5z m602 -13 c-13 -11 -26 -18 -28 -15 -7 7 21
34 36 34 10 0 8 -6 -8 -19z m84 -2 c-11 -12 -29 -19 -39 -17 -16 3 -14 6 11
20 42 22 53 21 28 -3z m1952 11 c-3 -5 -13 -10 -21 -10 -8 0 -14 5 -14 10 0 6
9 10 21 10 11 0 17 -4 14 -10z m95 0 c0 -5 -4 -10 -10 -10 -5 0 -10 5 -10 10
0 6 5 10 10 10 6 0 10 -4 10 -10z m155 0 c3 -5 -1 -10 -10 -10 -9 0 -13 5 -10
10 3 6 8 10 10 10 2 0 7 -4 10 -10z m-2065 -10 c-8 -5 -22 -9 -30 -9 -10 0 -8
3 5 9 27 12 43 12 25 0z m235 0 c3 -5 2 -10 -4 -10 -5 0 -13 5 -16 10 -3 6 -2
10 4 10 5 0 13 -4 16 -10z m1715 0 c0 -5 -5 -10 -11 -10 -5 0 -7 5 -4 10 3 6
8 10 11 10 2 0 4 -4 4 -10z m-3270 -9 c17 -5 21 -9 13 -14 -7 -5 -21 -3 -32 3
-13 7 -22 7 -26 0 -9 -15 -25 -12 -25 5 0 16 26 18 70 6z m3330 5 c0 -2 -9 -6
-20 -9 -11 -3 -20 -1 -20 4 0 5 9 9 20 9 11 0 20 -2 20 -4z m-2942 -23 c2 -7
-1 -13 -8 -13 -6 0 -9 4 -5 9 3 5 -8 12 -25 15 l-30 6 32 -2 c17 -2 33 -9 36
-15z m3139 1 c-3 -3 -12 -4 -19 -1 -8 3 -5 6 6 6 11 1 17 -2 13 -5z m-3182
-14 c-27 -12 -35 -12 -35 0 0 6 12 10 28 9 24 0 25 -1 7 -9z m2805 -16 c0 -2
-9 -4 -21 -4 -11 0 -18 4 -14 10 5 8 35 3 35 -6z m97 10 c-3 -3 -12 -4 -19 -1
-8 3 -5 6 6 6 11 1 17 -2 13 -5z m138 -3 l30 -7 -33 -7 c-19 -4 -41 -3 -50 2
-9 4 -23 6 -29 4 -7 -3 -13 0 -13 6 0 12 47 13 95 2z m-395 -31 c11 -8 7 -9
-15 -4 -37 8 -45 14 -19 14 10 0 26 -5 34 -10z m-2773 -17 c-10 -3 -14 -9 -10
-16 4 -7 -1 -6 -10 2 -23 18 -22 21 11 20 17 -1 20 -3 9 -6z m3058 -3 c-3 -5
-11 -10 -16 -10 -6 0 -7 5 -4 10 3 6 11 10 16 10 6 0 7 -4 4 -10z m-3501 -131
c-3 -5 -10 -7 -15 -3 -5 3 -7 10 -3 15 3 5 10 7 15 3 5 -3 7 -10 3 -15z m86
-9 c12 -8 9 -10 -12 -10 -16 0 -28 5 -28 10 0 13 20 13 40 0z m2433 -37 c-7
-2 -19 -2 -25 0 -7 3 -2 5 12 5 14 0 19 -2 13 -5z m664 -19 c-3 -3 -12 -4 -19
-1 -8 3 -5 6 6 6 11 1 17 -2 13 -5z m-1272 -14 c3 -5 1 -10 -4 -10 -6 0 -11 5
-11 10 0 6 2 10 4 10 3 0 8 -4 11 -10z m1628 3 c-7 -2 -19 -2 -25 0 -7 3 -2 5
12 5 14 0 19 -2 13 -5z m144 1 c-3 -3 -12 -4 -19 -1 -8 3 -5 6 6 6 11 1 17 -2
13 -5z m-4381 -26 c5 -7 3 -8 -5 -4 -8 6 -11 2 -9 -10 2 -14 -4 -20 -21 -22
-23 -4 -23 -4 -5 22 21 28 29 31 40 14z m2294 -18 c0 -5 -5 -10 -11 -10 -5 0
-7 5 -4 10 3 6 8 10 11 10 2 0 4 -4 4 -10z m1857 -6 c-3 -3 -12 -4 -19 -1 -8
3 -5 6 6 6 11 1 17 -2 13 -5z m-1016 -87 c9 -7 14 -19 12 -27 -12 -43 -14 -44
-28 -16 -25 48 -18 69 16 43z m-706 -7 c-3 -5 -10 -10 -16 -10 -5 0 -9 5 -9
10 0 6 7 10 16 10 8 0 12 -4 9 -10z m-2224 -36 c7 -9 23 -20 35 -25 24 -9 52
-49 35 -49 -25 0 -63 26 -81 57 -20 34 -13 46 11 17z m119 -74 c0 -5 -4 -10
-9 -10 -6 0 -13 5 -16 10 -3 6 1 10 9 10 9 0 16 -4 16 -10z m4049 -15 c38 -19
51 -59 37 -110 -10 -32 -16 -39 -33 -37 -12 2 -24 -2 -28 -8 -3 -5 1 -10 9
-10 9 0 16 -7 16 -15 0 -17 -16 -20 -25 -5 -3 5 -20 13 -38 18 -24 6 -35 5
-45 -7 -8 -9 -11 -11 -8 -5 3 6 -3 22 -14 34 -21 24 -26 51 -12 64 7 8 9 13
11 44 1 21 47 51 79 52 13 0 36 -7 51 -15z m-3999 -24 c0 -14 -12 -20 -26 -14
-22 8 -17 32 6 26 11 -3 20 -9 20 -12z m-254 -77 c27 -9 58 -25 68 -34 18 -17
18 -21 3 -58 l-16 -40 35 -7 c19 -3 44 -3 54 0 12 4 20 2 20 -4 0 -6 -21 -11
-50 -11 -57 0 -70 -15 -68 -77 2 -62 -11 -96 -49 -131 -22 -21 -33 -39 -31
-50 3 -10 -4 -25 -17 -34 l-23 -17 -12 65 c-8 42 -10 91 -5 133 3 36 6 93 6
126 -1 89 9 155 23 155 7 0 35 -7 62 -16z m362 -10 c18 -8 32 -17 32 -19 0 -7
-60 17 -66 26 -7 12 -2 11 34 -7z m167 -4 c8 -13 -5 -13 -25 0 -13 8 -13 10 2
10 9 0 20 -4 23 -10z m2117 -43 c26 -41 -10 -57 -57 -26 -32 22 -33 25 -17 37
19 14 62 8 74 -11z m1384 -35 c-8 -9 -19 -13 -22 -9 -10 9 16 38 28 31 6 -4 4
-13 -6 -22z m152 -2 c7 -11 10 -20 6 -20 -7 0 -34 27 -34 34 0 13 16 5 28 -14z
m-3750 -26 c11 7 120 -48 197 -99 32 -22 64 -40 70 -40 28 -1 235 -129 235
-146 0 -27 -20 -46 -49 -44 -20 1 -28 -2 -24 -11 6 -16 -23 -31 -87 -45 -33
-7 -64 -22 -83 -40 -16 -16 -40 -29 -53 -29 -13 0 -49 -11 -80 -25 -31 -14
-62 -25 -70 -25 -7 0 -17 -6 -21 -13 -4 -7 -33 -19 -63 -26 -30 -8 -76 -27
-102 -44 -41 -26 -48 -35 -48 -63 0 -20 -6 -34 -16 -38 -21 -8 -26 -3 -26 28
0 14 -7 27 -14 30 -8 3 -14 12 -14 21 0 8 -5 15 -11 15 -6 0 -8 7 -5 17 4 9 1
20 -6 25 -10 6 -10 10 2 17 12 9 12 11 -3 16 -13 6 -14 11 -6 26 7 14 6 19 -3
20 -7 0 -3 4 10 9 12 5 22 18 22 28 0 11 10 27 23 35 18 13 19 16 5 16 -9 1
-19 -3 -23 -8 -3 -6 -19 -17 -36 -25 -28 -14 -31 -14 -50 5 -19 19 -19 20 -2
19 40 -5 55 0 49 15 -3 9 4 21 19 31 14 9 25 21 25 26 0 5 16 28 35 51 19 22
35 47 35 54 0 8 5 11 10 8 6 -3 10 3 10 14 0 13 7 21 17 21 9 0 14 3 10 6 -3
3 7 17 23 31 17 14 27 30 23 38 -3 8 0 15 7 15 8 0 11 9 8 25 -3 14 -1 25 5
25 6 0 2 6 -8 14 -11 8 -16 20 -12 29 5 14 9 14 36 1 17 -9 35 -13 39 -10z
m1953 3 c9 -7 14 -17 12 -23 -2 -6 8 -23 22 -38 14 -15 25 -23 25 -19 1 4 8
-4 16 -19 8 -16 21 -28 29 -28 7 0 16 -13 20 -29 3 -15 15 -38 25 -49 11 -12
20 -30 20 -41 0 -11 14 -31 30 -43 17 -12 44 -47 60 -77 27 -50 33 -76 39
-185 1 -16 4 -17 13 -8 21 21 39 14 32 -12 -4 -16 1 -29 15 -43 12 -11 19 -30
19 -51 -1 -18 -3 -30 -6 -28 -9 10 -32 -23 -32 -47 0 -37 -31 -117 -45 -117
-9 0 -11 8 -7 23 5 20 4 21 -12 8 -9 -8 -15 -20 -12 -27 3 -7 1 -16 -4 -19 -6
-4 -10 -20 -10 -37 0 -16 -6 -42 -14 -56 -15 -30 -31 -68 -40 -94 -6 -21 15
-24 44 -5 17 10 22 9 29 -2 7 -11 10 -9 15 7 4 11 6 24 5 28 -2 10 5 30 28 83
8 18 13 44 10 57 -4 23 14 39 41 35 17 -3 15 16 -2 22 -22 9 -7 46 20 53 13 3
24 9 24 13 0 3 9 12 21 19 18 11 20 11 19 -5 -1 -10 -2 -27 -1 -38 1 -17 4
-15 16 9 8 15 15 35 15 43 0 26 -43 198 -52 210 -5 7 -5 14 1 17 5 3 12 0 15
-6 3 -7 5 -2 4 12 0 14 2 33 7 43 11 25 61 77 75 77 6 0 8 5 5 10 -3 6 -2 10
4 10 15 0 30 -58 36 -135 3 -39 10 -95 17 -125 15 -73 14 -441 -1 -522 -7 -35
-21 -89 -30 -118 l-18 -55 -112 -1 c-61 -1 -111 2 -111 5 0 15 -62 29 -148 35
-147 9 -381 53 -406 76 -5 5 -16 6 -25 4 -9 -3 -6 1 7 8 12 8 19 17 16 21 -15
14 -54 6 -66 -13 -14 -22 -43 -25 -98 -11 -43 12 -104 20 -147 21 -29 0 -35 6
-69 68 -21 37 -42 73 -48 81 -5 7 -11 18 -12 25 -1 6 -17 45 -35 86 -17 41
-36 84 -40 95 -24 55 -48 139 -54 188 -6 44 -3 64 14 101 11 26 17 44 12 42
-4 -3 -2 18 6 47 12 46 21 85 39 175 4 21 2 23 -18 17 -13 -4 -36 -13 -52 -21
-16 -8 -32 -11 -35 -8 -3 4 0 9 7 11 6 3 12 13 12 23 0 22 25 44 44 37 8 -3
17 0 19 8 3 7 26 21 52 30 37 15 50 16 68 6 19 -10 57 0 262 68 132 44 256 86
275 95 42 18 79 20 101 3z m1709 -47 c0 -5 -5 -10 -11 -10 -5 0 -7 5 -4 10 3
6 8 10 11 10 2 0 4 -4 4 -10z m-530 -71 c-49 -22 -50 -22 -50 -9 0 6 8 10 19
10 10 0 24 6 31 14 6 8 18 12 26 9 10 -4 2 -12 -26 -24z m740 -49 c0 -5 -4
-10 -10 -10 -5 0 -10 5 -10 10 0 6 5 10 10 10 6 0 10 -4 10 -10z m-4264 -106
c-5 -17 -3 -23 4 -19 13 8 13 4 -1 -53 -7 -26 -19 -55 -27 -65 -20 -22 -9 -33
12 -12 15 15 16 15 16 0 0 -8 -8 -19 -17 -23 -19 -7 -23 -18 -28 -69 -3 -37 9
-43 25 -13 6 11 16 20 23 20 7 0 8 -3 2 -8 -5 -4 -11 -16 -12 -26 -6 -72 -14
-110 -24 -117 -7 -4 -14 -15 -15 -24 -10 -71 -40 33 -61 212 -6 52 13 112 35
115 9 0 23 2 30 2 20 2 37 37 23 46 -8 5 -9 14 -2 33 13 34 25 35 17 1z m-236
-25 c0 -6 -9 -13 -20 -16 -11 -3 -20 -6 -20 -7 0 0 7 -19 15 -41 10 -30 14
-92 15 -241 l0 -201 -29 -6 c-22 -5 -32 -15 -45 -46 l-16 -40 -25 23 c-17 16
-29 42 -36 82 -6 32 -17 70 -25 85 -7 15 -10 30 -6 33 3 4 0 5 -8 1 -11 -4
-21 7 -33 35 -14 33 -15 48 -6 87 17 77 59 156 110 210 27 27 40 33 61 29 16
-3 31 0 38 9 15 18 30 20 30 4z m1530 -19 c0 -5 -7 -10 -15 -10 -8 0 -15 5
-15 10 0 6 7 10 15 10 8 0 15 -4 15 -10z m3017 4 c-3 -3 -12 -4 -19 -1 -8 3
-5 6 6 6 11 1 17 -2 13 -5z m-3027 -34 c10 -6 11 -10 3 -10 -21 0 -15 -18 8
-25 12 -4 18 -13 15 -20 -3 -9 3 -15 17 -17 15 -2 23 -12 28 -35 4 -20 2 -34
-5 -37 -7 -3 -8 -7 -1 -13 21 -16 7 -136 -32 -270 -8 -29 -19 -55 -24 -58 -13
-9 -11 -45 3 -45 6 0 4 -8 -6 -19 -16 -17 -16 -19 0 -25 13 -5 15 -14 10 -41
-8 -42 7 -46 28 -7 13 24 15 24 16 6 0 -12 -10 -26 -24 -34 -15 -7 -24 -21
-23 -34 2 -54 -4 -106 -13 -106 -5 0 -19 9 -30 20 -17 17 -21 18 -26 5 -3 -8
-10 -12 -15 -9 -18 10 -20 -23 -5 -67 9 -24 16 -63 16 -86 0 -24 1 -43 3 -43
2 0 22 9 45 20 66 32 130 5 212 -87 34 -38 43 -57 46 -92 1 -24 6 -47 11 -50
4 -3 8 -10 9 -16 3 -31 19 -55 35 -55 16 0 17 -4 9 -26 -13 -32 -13 -35 3 -31
8 1 12 -11 13 -35 0 -36 13 -67 15 -37 1 24 27 -64 31 -108 2 -13 28 -5 28 9
0 5 -5 18 -10 29 -8 14 -7 19 1 19 6 0 9 6 6 14 -3 8 -2 16 3 18 6 2 3 15 -4
30 -10 20 -11 28 -3 31 9 3 8 8 -2 20 -11 15 -11 17 2 17 12 0 13 7 7 37 -5
20 -7 40 -4 44 2 4 -2 10 -8 13 -9 3 -8 8 5 16 13 8 15 16 8 29 -7 12 -7 21 0
28 6 6 12 49 14 97 6 130 13 133 77 36 37 -56 48 -66 83 -74 22 -4 80 -21 129
-36 48 -16 94 -26 100 -24 6 2 17 -4 25 -14 8 -12 21 -17 36 -15 24 5 278 -58
338 -84 52 -22 181 -22 222 0 17 9 42 17 57 17 34 0 79 -20 72 -32 -3 -4 1
-10 8 -13 10 -4 13 -24 12 -73 -5 -131 -10 -207 -18 -230 -7 -18 -5 -21 8 -16
21 8 20 -2 -3 -25 -14 -14 -18 -33 -19 -80 0 -34 -5 -67 -11 -75 -6 -7 -8 -16
-4 -19 3 -4 1 -7 -5 -7 -7 0 -12 -8 -12 -18 0 -11 -9 -27 -19 -36 -11 -10 -27
-33 -36 -52 -9 -18 -19 -33 -23 -32 -4 2 -27 -17 -52 -40 -28 -26 -52 -41 -63
-38 -11 3 -22 -5 -31 -22 -8 -15 -27 -36 -42 -47 -57 -42 -84 -67 -78 -76 3
-5 -4 -9 -16 -9 -35 0 -99 -39 -115 -70 -9 -17 -22 -30 -30 -30 -8 0 -15 -6
-16 -12 0 -7 -2 -23 -3 -36 -2 -12 1 -22 6 -22 4 0 3 -9 -4 -20 -7 -10 -14
-17 -17 -15 -2 3 -10 0 -17 -6 -29 -24 -39 62 -13 108 23 41 18 54 -11 28 -14
-13 -17 -21 -9 -26 8 -4 4 -9 -10 -14 -23 -7 -28 -21 -10 -27 8 -3 6 -10 -5
-21 -10 -9 -14 -21 -11 -27 3 -5 -1 -10 -9 -10 -16 0 -32 -23 -37 -55 -2 -11
-12 -29 -22 -40 -11 -11 -16 -30 -14 -43 2 -12 -1 -22 -7 -23 -7 0 -7 -2 1 -5
7 -3 9 -13 6 -22 -4 -13 -3 -14 5 -3 5 7 34 22 63 32 29 10 56 22 60 26 5 5 9
29 10 56 2 26 4 47 6 47 1 0 7 -9 13 -21 9 -15 8 -24 -1 -35 -12 -14 -3 -19
29 -15 6 1 12 -3 12 -9 0 -15 19 -12 36 5 9 8 25 15 38 15 12 0 27 5 33 11 7
7 12 6 16 -5 4 -10 -3 -17 -24 -21 -16 -4 -65 -22 -108 -41 -44 -19 -86 -34
-94 -34 -8 0 -31 -11 -52 -25 -20 -14 -50 -28 -65 -32 -17 -3 -27 -10 -24 -18
6 -14 -80 -50 -96 -40 -5 3 -16 3 -22 -1 -14 -9 -24 -11 -87 -19 -25 -2 -48
-10 -52 -16 -3 -6 -28 -14 -55 -17 -27 -2 -52 -10 -56 -15 -4 -7 -11 -7 -21 1
-12 10 -16 9 -21 -3 -3 -9 -18 -15 -36 -15 -16 0 -30 -5 -30 -11 0 -6 -6 -9
-14 -6 -7 3 -20 -3 -29 -14 -9 -10 -23 -16 -31 -13 -8 3 -25 -1 -37 -9 -15
-11 -36 -14 -74 -10 -32 3 -55 1 -59 -5 -9 -16 -36 -3 -46 22 -8 19 -9 19 -9
-6 -1 -25 -20 -33 -37 -15 -4 4 -23 7 -41 7 -19 0 -32 4 -28 9 11 18 -12 20
-36 3 -20 -14 -48 -17 -170 -17 -81 0 -145 3 -142 8 2 4 -11 6 -29 5 -18 0
-85 5 -148 12 -89 11 -127 20 -170 42 -30 15 -61 28 -70 28 -21 0 -88 37 -129
71 -35 28 -71 103 -71 147 0 14 11 29 30 41 16 10 28 20 25 23 -3 3 -1 18 5
33 14 36 8 41 -23 20 -20 -13 -26 -13 -30 -2 -6 15 30 77 44 77 14 0 11 -17
-7 -34 -14 -15 -13 -16 8 -17 23 -1 29 -1 61 8 9 3 17 1 17 -5 0 -5 -11 -13
-24 -16 -17 -4 -24 -13 -23 -31 0 -14 2 -25 4 -25 8 0 155 80 183 100 20 14
39 16 90 13 104 -7 118 -37 63 -140 -12 -24 -23 -51 -23 -59 0 -21 34 -17 55
6 10 11 24 20 32 20 7 0 13 9 13 21 0 11 5 17 10 14 6 -4 32 6 58 22 77 46 99
52 150 46 33 -3 71 1 122 16 70 19 120 24 120 11 0 -3 16 -14 35 -24 19 -11
35 -25 35 -33 0 -7 8 -32 19 -56 10 -23 23 -54 29 -69 12 -28 52 -58 52 -38 0
20 61 70 85 70 13 0 30 9 38 20 8 11 16 17 20 14 9 -9 47 6 47 18 0 6 -8 17
-17 24 -16 12 -17 13 -1 14 9 0 25 3 35 7 16 6 16 5 4 -10 -12 -15 -10 -17 18
-17 17 0 31 5 31 10 0 6 7 10 15 10 8 0 15 2 15 4 0 2 3 12 7 22 5 13 3 15 -7
9 -10 -6 -12 -4 -7 9 4 10 1 19 -8 22 -7 3 -12 11 -9 18 3 7 -4 21 -16 31 -11
10 -20 24 -20 32 0 7 -11 13 -25 13 -14 0 -25 4 -25 10 0 5 -7 7 -16 3 -15 -5
-15 -3 1 20 15 24 15 27 2 27 -9 0 -22 12 -29 27 -8 16 -23 29 -36 31 -22 3
-23 4 -5 17 16 13 16 14 1 15 -9 0 -35 17 -56 38 -55 53 -132 115 -132 105 0
-4 -4 -1 -10 7 -6 9 -5 17 3 22 7 4 -8 8 -33 9 -25 1 -37 3 -27 6 9 2 17 8 17
11 -1 12 -54 70 -100 108 -25 20 -45 45 -45 55 0 10 -4 19 -8 19 -4 0 -16 0
-27 0 -11 0 -43 -25 -72 -56 -76 -81 -103 -98 -128 -84 -19 10 -21 18 -17 75
6 106 -8 108 -180 23 -69 -34 -139 -61 -155 -61 -25 0 -37 -9 -65 -49 -34 -47
-42 -52 -73 -49 -12 2 -13 0 -1 -8 11 -7 9 -11 -10 -22 -29 -15 -48 -39 -49
-59 0 -29 70 -155 101 -181 25 -20 30 -30 24 -49 -5 -16 -10 -19 -15 -10 -4 7
-16 9 -28 6 -14 -5 -24 -1 -32 11 -11 16 -11 17 -6 1 3 -10 0 -18 -6 -18 -6 0
-20 -8 -30 -17 -26 -23 -88 -43 -114 -37 -17 4 -21 12 -20 36 1 17 -3 32 -11
35 -22 9 -14 23 12 23 14 0 25 5 25 10 0 6 -10 10 -23 10 -23 0 -60 33 -49 45
3 3 14 -4 24 -17 13 -18 19 -20 29 -11 10 10 9 16 -7 28 -19 14 -18 14 4 15
12 0 22 5 22 10 0 6 -11 10 -25 10 -14 0 -25 4 -25 8 0 5 -12 13 -27 20 l-28
12 28 -4 c43 -5 18 12 -28 19 -37 6 -39 5 -21 -9 26 -21 14 -30 -45 -33 -43
-1 -49 1 -49 19 0 17 5 20 31 16 28 -4 30 -3 26 19 -2 12 0 23 5 23 6 0 8 7 4
15 -3 8 -1 15 4 15 6 0 10 11 10 25 0 14 6 28 14 31 12 5 12 11 -1 42 -19 47
-20 47 -38 32 -13 -11 -13 -15 -3 -21 9 -6 6 -9 -10 -9 -13 0 -21 -3 -19 -7 3
-5 -2 -15 -11 -23 -14 -13 -15 -12 -9 3 7 19 0 21 -22 8 -12 -8 -12 -12 -2
-25 10 -12 10 -16 2 -16 -7 0 -9 -4 -6 -10 4 -6 -6 -10 -22 -10 -24 1 -25 2
-10 11 23 14 22 33 -3 26 -13 -3 -26 3 -39 19 -18 23 -24 50 -56 244 -9 52
-19 97 -23 100 -4 3 -7 16 -7 30 -1 14 -4 43 -8 64 -6 35 -5 38 8 25 8 -8 16
-28 18 -44 4 -36 27 -117 38 -129 4 -4 13 -5 20 -1 9 6 7 11 -6 22 -11 7 -15
13 -11 13 4 0 4 6 -1 13 -11 17 -12 61 -1 68 4 3 -5 24 -22 47 -16 23 -30 46
-30 52 0 5 -4 10 -9 10 -5 0 -19 15 -31 34 -20 33 -20 39 -9 148 13 131 14
142 4 226 -4 34 -13 62 -19 62 -6 0 -5 4 3 9 7 5 16 30 18 56 4 31 9 42 14 33
5 -7 9 -8 10 -3 0 6 2 26 5 45 3 25 1 31 -6 20 -8 -13 -10 -13 -10 2 0 9 4 18
9 20 5 2 12 26 15 53 11 93 64 323 77 330 5 4 9 3 9 0 0 -17 42 -294 61 -395
29 -165 28 -162 41 -154 6 4 9 1 6 -7 -3 -8 1 -34 8 -59 8 -25 14 -55 14 -68
0 -36 49 -177 74 -214 17 -26 29 -33 51 -31 33 3 42 10 47 38 4 26 18 36 41
29 12 -4 17 0 17 15 0 12 6 21 14 21 8 0 17 7 20 16 3 8 10 13 15 10 8 -5 65
14 136 45 11 5 43 16 70 25 75 25 138 55 159 77 22 23 26 23 -44 1 -12 -4 -20
-2 -20 5 0 6 11 11 25 11 14 0 25 5 25 10 0 6 -5 10 -11 10 -8 0 -8 4 1 15 6
8 13 49 14 92 2 75 6 85 78 238 42 88 80 174 84 190 13 52 81 198 87 184 2 -8
8 3 12 23 4 21 12 35 17 32 6 -4 14 0 19 7 8 12 11 12 19 -1 7 -11 4 -20 -13
-33 -12 -10 -16 -16 -9 -12 19 10 14 -2 -10 -25 -12 -11 -18 -23 -15 -27 4 -3
7 -1 7 5 0 7 4 12 9 12 14 0 21 -54 8 -62 -7 -4 -12 -11 -13 -15 0 -4 -8 -27
-18 -50 -14 -34 -23 -42 -52 -47 -48 -10 -42 -21 11 -21 40 1 48 4 60 29 8 16
15 38 15 49 0 29 12 13 16 -22 2 -17 -3 -34 -11 -41 -8 -7 -15 -18 -15 -24 0
-7 -11 -22 -25 -34 -13 -12 -27 -34 -30 -49 -4 -15 -13 -43 -21 -61 -8 -18
-14 -42 -14 -53 0 -11 -10 -24 -22 -29 -13 -5 -17 -9 -9 -9 7 -1 11 -7 7 -16
-3 -8 -1 -15 4 -15 13 0 53 54 98 132 36 62 105 162 115 166 4 2 7 11 7 20 0
10 9 28 20 42 11 14 20 33 20 44 0 15 3 16 15 6 13 -10 15 -9 15 10 0 31 31
80 52 80 18 0 50 38 43 51 -3 4 2 9 10 13 8 3 15 13 15 21 0 10 5 13 12 9 7
-5 9 -2 5 8 -3 9 3 24 14 34 10 9 19 23 19 30 0 7 6 17 14 21 19 11 24 34 15
61 -9 24 -3 27 21 12z m2545 -110 c-3 -5 -12 -10 -18 -10 -7 0 -6 4 3 10 19
12 23 12 15 0z m-3778 -16 c-3 -3 -12 -4 -19 -1 -8 3 -5 6 6 6 11 1 17 -2 13
-5z m1083 -49 c0 -8 -7 -15 -15 -15 -16 0 -20 12 -8 23 11 12 23 8 23 -8z
m-427 -65 c44 0 -2 -106 -100 -227 -24 -30 -30 -43 -19 -43 13 0 12 -8 -5 -57
-10 -31 -19 -63 -19 -71 0 -8 -20 -56 -44 -107 l-44 -93 -103 -4 c-128 -6
-112 -21 -231 206 -58 109 -69 151 -46 174 9 9 8 12 -8 12 -16 0 -17 2 -4 10
8 6 31 9 50 8 19 -2 35 2 35 7 1 6 6 20 13 33 14 25 37 29 49 8 4 -7 18 -18
30 -25 19 -10 28 -8 51 9 l28 21 68 -36 c78 -41 89 -42 116 -15 15 15 20 34
21 73 2 86 9 100 59 114 25 6 54 10 65 8 11 -3 28 -5 38 -5z m3507 -60 c0 -5
-5 -10 -11 -10 -5 0 -7 5 -4 10 3 6 8 10 11 10 2 0 4 -4 4 -10z m-260 -20 c0
-5 -4 -10 -10 -10 -5 0 -10 5 -10 10 0 6 5 10 10 10 6 0 10 -4 10 -10z m55 0
c-3 -5 -10 -10 -16 -10 -5 0 -9 5 -9 10 0 6 7 10 16 10 8 0 12 -4 9 -10z
m-915 -45 c0 -13 5 -27 10 -30 6 -3 7 -18 4 -32 -5 -18 -2 -30 8 -37 22 -17
38 -50 32 -72 -3 -12 3 -24 16 -32 17 -10 20 -10 20 5 1 15 3 15 13 -3 7 -12
18 -19 25 -17 30 11 99 -75 116 -143 5 -17 12 -24 21 -20 8 3 19 -3 24 -12 9
-16 11 -15 25 3 20 26 20 35 -1 35 -14 0 -14 2 3 21 10 11 26 18 36 16 9 -3
19 -2 21 2 5 8 -1 -14 -9 -34 -3 -8 -1 -15 5 -15 6 0 11 5 11 11 0 13 34 8 93
-13 23 -8 35 -18 32 -25 -19 -48 -20 -48 18 -24 33 20 36 21 30 4 -3 -10 -21
-39 -40 -66 -18 -26 -33 -50 -33 -54 0 -4 -9 -17 -21 -29 -16 -17 -19 -26 -10
-42 6 -11 8 -21 6 -24 -3 -3 -6 -24 -7 -47 -1 -30 -8 -48 -25 -64 -13 -12 -32
-42 -43 -66 -23 -50 -24 -55 -10 -46 6 3 10 -2 10 -11 0 -10 3 -14 6 -11 4 4
16 -3 26 -16 16 -18 19 -31 14 -76 -6 -51 -13 -66 -43 -99 -21 -22 -16 -52 9
-52 35 0 83 45 111 103 25 53 47 80 47 57 0 -22 44 20 47 45 2 14 8 35 13 48
8 20 9 20 10 2 0 -18 2 -17 14 5 11 21 11 27 0 36 -8 6 -14 28 -14 48 0 20 -4
36 -8 36 -11 0 -9 31 3 50 5 9 4 15 -3 18 -7 2 -12 11 -12 19 0 9 6 13 15 9 8
-3 15 -1 15 3 0 5 14 14 30 20 17 5 30 15 30 20 0 6 3 10 8 9 22 -5 62 16 62
33 0 10 5 19 11 19 5 0 7 -5 3 -11 -4 -7 7 -3 25 7 17 10 29 24 27 31 -3 8 2
13 12 13 14 0 15 2 2 10 -12 8 -12 10 2 15 23 9 31 45 10 45 -10 0 -25 16 -34
35 -17 35 -17 35 4 35 21 0 21 1 3 13 -10 8 -15 19 -11 25 4 7 2 12 -3 12 -6
0 -10 5 -8 12 1 6 -6 14 -17 16 -11 2 -16 0 -12 -7 4 -7 1 -9 -8 -5 -11 4 -13
11 -5 31 8 22 7 24 -8 18 -33 -13 -48 -13 -63 1 -13 11 -21 8 -53 -20 -53 -46
-68 -43 -63 11 3 44 9 55 60 112 l31 34 -40 -23 c-22 -13 -49 -30 -61 -37 -15
-10 -28 -11 -45 -4 -23 9 -23 10 -2 10 12 1 24 9 28 20 12 37 177 161 216 161
15 0 11 -15 -11 -38 -25 -26 -28 -51 -4 -31 14 11 19 10 35 -10 l20 -24 23 22
c17 16 30 20 50 15 17 -4 26 -2 26 6 0 6 -4 9 -9 5 -15 -8 -25 15 -12 28 8 8
14 8 23 -1 17 -17 26 -15 24 4 -1 21 35 44 41 27 3 -7 9 -13 15 -13 6 0 7 7 4
16 -5 12 -2 15 11 11 10 -2 25 -6 33 -8 8 -2 18 -8 22 -14 4 -6 8 -2 8 8 0 9
5 17 11 17 7 0 9 -9 5 -23 -7 -31 23 -51 51 -32 17 12 20 10 33 -18 11 -24 15
-28 18 -14 5 26 19 21 27 -10 5 -21 2 -32 -14 -44 -25 -21 -27 -31 -5 -27 10
2 19 -3 21 -9 3 -8 -5 -13 -21 -13 -14 0 -26 -4 -26 -9 0 -5 7 -8 16 -7 9 0
19 -5 22 -13 2 -8 0 -11 -6 -7 -11 7 -28 -67 -18 -82 3 -5 -1 -28 -8 -52 -8
-28 -15 -39 -19 -30 -3 8 -6 -14 -5 -50 1 -36 -3 -74 -9 -85 -6 -11 -16 -37
-22 -57 -7 -21 -16 -38 -20 -38 -4 0 -7 -16 -8 -35 -1 -19 3 -32 8 -29 5 3 9
-2 9 -10 0 -26 -17 -18 -33 16 -13 27 -17 30 -23 15 -4 -10 0 -25 8 -35 15
-18 13 -56 -3 -47 -5 4 -9 -3 -9 -14 0 -11 -5 -23 -11 -26 -6 -4 -8 -13 -5
-21 3 -7 0 -16 -5 -20 -6 -3 -9 -19 -6 -33 5 -21 0 -32 -19 -46 -14 -10 -37
-29 -52 -42 -15 -13 -33 -21 -41 -18 -8 3 -11 0 -8 -9 6 -14 -19 -43 -28 -34
-3 3 -7 19 -9 36 -2 22 1 32 10 32 8 0 11 6 7 17 -5 12 -3 14 7 8 10 -6 11 -2
6 19 -4 15 -2 26 4 26 5 0 10 8 10 17 0 9 10 28 23 41 21 24 21 25 2 19 -18
-7 -19 -6 -3 6 10 8 15 17 11 20 -3 4 -1 7 5 7 15 0 26 60 13 73 -6 6 -11 18
-11 26 0 11 4 10 16 -5 14 -17 15 -17 10 -1 -3 10 -6 23 -6 28 0 4 -6 6 -14 3
-8 -3 -17 -1 -21 5 -13 23 -25 10 -25 -28 0 -50 -12 -81 -44 -116 -14 -15 -26
-31 -26 -34 0 -9 -61 -31 -71 -26 -4 3 -5 -4 -2 -16 4 -14 0 -22 -14 -25 -14
-4 -19 -13 -17 -30 3 -27 0 -28 -26 -14 -14 7 -19 5 -23 -10 -5 -20 -37 -29
-37 -10 0 6 -5 10 -11 10 -8 0 -8 -4 0 -14 7 -9 9 -29 5 -56 -6 -34 -4 -42 7
-38 8 3 13 11 12 17 -2 6 3 11 11 11 27 0 5 -36 -66 -110 -67 -70 -138 -167
-138 -190 0 -5 -5 -9 -12 -7 -6 1 -13 -5 -14 -13 -2 -8 -5 -32 -9 -52 -8 -51
-33 -50 -91 4 l-45 42 7 -30 6 -29 -38 38 c-37 36 -39 40 -39 100 1 34 4 74 8
89 6 24 12 27 59 30 42 2 54 8 71 30 12 15 18 30 16 33 -3 3 -33 8 -67 11 -61
7 -62 8 -72 42 -7 27 -6 38 3 44 9 6 9 8 0 8 -6 0 -15 -5 -18 -10 -4 -6 -11
-7 -18 -3 -24 14 -57 9 -57 -9 0 -10 -10 -23 -22 -28 -13 -5 -16 -9 -8 -9 8 0
24 6 34 14 23 18 66 20 66 4 0 -7 -10 -9 -24 -5 -25 6 -56 -14 -56 -36 0 -6
-8 -20 -17 -30 -9 -10 -18 -33 -19 -51 -3 -35 -20 -114 -30 -140 -4 -11 -1
-17 9 -17 9 0 18 -4 21 -9 4 -5 -2 -7 -13 -4 -11 3 -21 -2 -24 -12 -5 -11 -11
-13 -24 -7 -10 5 -24 7 -30 5 -7 -3 -13 0 -13 6 0 6 5 11 11 11 8 0 7 6 -2 17
-11 13 -11 17 -1 21 10 3 10 7 1 18 -9 11 -8 14 7 15 17 0 18 1 2 12 -15 10
-15 12 4 28 11 10 17 23 13 29 -5 9 -10 9 -18 1 -16 -16 -27 -13 -27 7 0 10
-5 23 -12 30 -7 7 -8 12 -4 12 5 0 3 7 -4 15 -9 11 -9 15 -1 15 8 0 9 5 1 19
-7 15 -7 22 3 28 8 4 17 17 21 28 6 16 5 18 -5 8 -7 -7 -20 -13 -28 -12 -11 0
-12 2 -3 6 6 2 12 9 12 14 0 4 -6 6 -14 3 -13 -5 -26 13 -32 46 -2 8 -12 21
-23 28 -19 13 -19 14 1 37 11 13 27 21 34 18 8 -3 14 1 14 11 0 9 6 16 13 17
10 0 10 2 0 6 -15 6 -18 73 -3 73 5 0 7 7 4 15 -4 9 1 18 11 22 17 6 17 7 0
19 -15 11 -17 22 -11 60 3 26 13 58 21 71 9 13 11 23 5 23 -6 0 -10 41 -9 113
0 61 -2 146 -5 187 -18 233 -18 242 4 230 11 -6 20 -21 20 -35z m-1740 -45 c0
-5 -5 -10 -11 -10 -5 0 -7 5 -4 10 3 6 8 10 11 10 2 0 4 -4 4 -10z m1813 -37
c-11 -31 -15 -34 -29 -22 -18 15 -18 33 1 26 8 -4 17 -2 20 3 10 16 15 11 8
-7z m-3135 -105 c-3 -7 -13 -15 -24 -17 -16 -3 -17 -1 -5 13 16 19 34 21 29 4z
m1292 -6 c0 -13 -12 -22 -22 -16 -10 6 -1 24 13 24 5 0 9 -4 9 -8z m-1262 -91
c1 -16 -2 -32 -8 -36 -5 -3 -10 1 -10 9 0 9 -6 16 -14 16 -21 0 -27 28 -10 45
21 20 39 6 42 -34z m3717 0 c-3 -6 -11 -11 -17 -11 -6 0 -6 6 2 15 14 17 26
13 15 -4z m-2185 -81 c0 -5 -4 -10 -9 -10 -6 0 -13 5 -16 10 -3 6 1 10 9 10 9
0 16 -4 16 -10z m-1553 -32 c-3 -8 -6 -5 -6 6 -1 11 2 17 5 13 3 -3 4 -12 1
-19z m3726 -119 c4 -15 2 -19 -9 -15 -9 4 -35 -10 -63 -34 -51 -43 -64 -49
-55 -25 4 8 13 15 21 15 8 0 11 5 8 11 -9 13 53 69 76 69 9 0 19 -9 22 -21z
m77 -19 c0 -5 -4 -10 -10 -10 -5 0 -10 5 -10 10 0 6 5 10 10 10 6 0 10 -4 10
-10z m-4173 -162 c-9 -24 -23 -95 -32 -158 -9 -63 -18 -117 -20 -119 -7 -6
-49 8 -81 28 -27 16 -33 28 -39 69 -8 64 12 99 58 104 32 3 32 4 43 76 11 73
22 92 57 92 9 0 18 6 19 13 1 6 3 -5 5 -25 2 -20 -2 -56 -10 -80z m492 80
c-10 -4 -19 -14 -19 -22 0 -19 -48 -30 -67 -15 -12 10 -16 10 -24 -2 -10 -16
-11 -14 -13 22 -2 25 -1 25 70 25 42 -1 64 -4 53 -8z m3508 -14 c-3 -3 -12 -4
-19 -1 -8 3 -5 6 6 6 11 1 17 -2 13 -5z m-3462 -64 c3 -5 1 -10 -4 -10 -6 0
-11 5 -11 10 0 6 2 10 4 10 3 0 8 -4 11 -10z m2755 -180 c0 -5 -4 -10 -10 -10
-5 0 -10 5 -10 10 0 6 5 10 10 10 6 0 10 -4 10 -10z m-20 -30 c0 -5 -5 -10
-11 -10 -5 0 -7 5 -4 10 3 6 8 10 11 10 2 0 4 -4 4 -10z m1000 -60 c0 -13 -9
-22 -27 -26 -16 -3 -32 -7 -38 -8 -10 -3 -34 22 -35 36 0 7 32 13 78 17 16 1
22 -4 22 -19z m-2295 -20 c3 -5 1 -10 -4 -10 -6 0 -11 5 -11 10 0 6 2 10 4 10
3 0 8 -4 11 -10z m-2042 -111 c6 -9 7 -25 3 -35 -6 -16 -9 -15 -26 11 -11 17
-20 34 -20 38 0 14 32 3 43 -14z m404 -467 c-9 -2 -15 -8 -11 -13 3 -5 -3 -17
-12 -27 -17 -16 -18 -16 -11 1 4 10 7 27 7 37 0 14 5 17 23 12 18 -5 19 -7 4
-10z m552 -13 c31 1 61 -6 105 -28 33 -16 74 -34 89 -40 16 -7 31 -21 34 -32
4 -14 11 -18 22 -14 41 16 158 45 181 45 14 0 30 -4 36 -9 5 -5 29 -20 54 -33
39 -21 53 -24 98 -18 51 6 113 -7 134 -28 7 -7 -13 -21 -58 -43 -72 -33 -155
-74 -212 -104 -21 -11 -65 -19 -120 -22 -48 -2 -91 -4 -97 -5 -43 -4 -134 15
-158 33 -15 11 -53 24 -84 29 -64 11 -73 16 -44 25 12 3 21 11 21 16 0 13 -24
11 -37 -2 -8 -8 -17 -6 -34 10 -13 11 -27 21 -32 21 -6 0 -32 22 -59 50 -42
43 -48 55 -48 91 0 60 18 71 100 62 36 -3 85 -6 109 -4z m-479 -179 c0 -5 -2
-10 -4 -10 -3 0 -8 5 -11 10 -3 6 -1 10 4 10 6 0 11 -4 11 -10z m-540 -121 c0
-5 -7 -9 -15 -9 -15 0 -20 12 -9 23 8 8 24 -1 24 -14z m2870 1 c0 -5 -5 -10
-11 -10 -5 0 -7 5 -4 10 3 6 8 10 11 10 2 0 4 -4 4 -10z m-1130 -20 c0 -5 -8
-10 -17 -10 -15 0 -16 2 -3 10 19 12 20 12 20 0z m-993 -62 c-3 -8 -6 -5 -6 6
-1 11 2 17 5 13 3 -3 4 -12 1 -19z m1253 -23 c0 -9 -9 -15 -22 -15 -22 1 -23
1 -4 15 25 19 26 19 26 0z m1070 -21 c0 -6 -20 -21 -45 -33 -25 -12 -49 -30
-54 -38 -8 -15 -10 -15 -24 -1 -15 14 -14 17 2 32 10 10 28 18 40 19 11 1 21
5 21 10 0 5 10 17 22 27 23 18 37 12 38 -16z m-1040 17 c0 -6 -4 -13 -10 -16
-5 -3 -10 1 -10 9 0 9 5 16 10 16 6 0 10 -4 10 -9z m0 -71 c0 -5 -5 -10 -11
-10 -5 0 -7 5 -4 10 3 6 8 10 11 10 2 0 4 -4 4 -10z m885 -20 c-3 -5 -10 -10
-16 -10 -5 0 -9 5 -9 10 0 6 7 10 16 10 8 0 12 -4 9 -10z m725 -196 c0 -8 -5
-12 -10 -9 -6 4 -8 11 -5 16 9 14 15 11 15 -7z m-3187 -33 l21 -21 -26 0 c-15
0 -40 11 -55 25 l-28 24 34 -3 c18 -2 43 -13 54 -25z m980 -478 c-7 -2 -19 -2
-25 0 -7 3 -2 5 12 5 14 0 19 -2 13 -5z"/>
<path d="M1431 4584 c0 -11 3 -14 6 -6 3 7 2 16 -1 19 -3 4 -6 -2 -5 -13z"/>
<path d="M1086 4554 c-4 -9 -4 -19 -1 -22 2 -3 7 3 11 12 4 9 4 19 1 22 -2 3
-7 -3 -11 -12z"/>
<path d="M1288 4563 c7 -3 16 -2 19 1 4 3 -2 6 -13 5 -11 0 -14 -3 -6 -6z"/>
<path d="M1448 4553 c-16 -18 -33 -63 -25 -63 7 0 48 72 44 76 -2 2 -11 -4
-19 -13z"/>
<path d="M1278 4542 c-47 -6 -31 -21 19 -19 26 1 45 6 43 12 -5 10 -21 12 -62
7z"/>
<path d="M1300 4510 c0 -5 5 -10 11 -10 5 0 7 5 4 10 -3 6 -8 10 -11 10 -2 0
-4 -4 -4 -10z"/>
<path d="M1365 4510 c3 -5 15 -10 26 -10 10 0 19 5 19 10 0 6 -12 10 -26 10
-14 0 -23 -4 -19 -10z"/>
<path d="M1338 4493 c7 -3 16 -2 19 1 4 3 -2 6 -13 5 -11 0 -14 -3 -6 -6z"/>
<path d="M1155 4260 c-3 -5 -1 -10 4 -10 6 0 11 5 11 10 0 6 -2 10 -4 10 -3 0
-8 -4 -11 -10z"/>
<path d="M1185 4250 c-3 -5 -1 -10 4 -10 6 0 11 5 11 10 0 6 -2 10 -4 10 -3 0
-8 -4 -11 -10z"/>
<path d="M2320 4415 c-32 -18 -25 -18 25 0 22 8 31 14 20 14 -11 0 -31 -6 -45
-14z"/>
<path d="M2052 4378 c3 -7 13 -15 24 -17 16 -3 17 -1 5 13 -16 19 -34 21 -29
4z"/>
<path d="M2370 4380 c0 -5 7 -10 15 -10 8 0 15 5 15 10 0 6 -7 10 -15 10 -8 0
-15 -4 -15 -10z"/>
<path d="M1980 4350 c0 -5 7 -10 15 -10 8 0 15 5 15 10 0 6 -7 10 -15 10 -8 0
-15 -4 -15 -10z"/>
<path d="M2375 4180 c-8 -13 4 -32 16 -25 12 8 12 35 0 35 -6 0 -13 -4 -16
-10z"/>
<path d="M2347 4063 c-4 -3 -7 -13 -7 -22 0 -12 3 -12 12 -3 7 7 20 12 30 12
10 0 18 5 18 10 0 11 -43 14 -53 3z"/>
<path d="M2039 3814 c-10 -13 -10 -17 1 -24 14 -9 40 -3 40 10 0 4 -6 13 -14
19 -10 9 -16 7 -27 -5z"/>
<path d="M1570 3649 c0 -5 5 -7 10 -4 6 3 10 8 10 11 0 2 -4 4 -10 4 -5 0 -10
-5 -10 -11z"/>
<path d="M1795 3480 c-10 -44 -16 -82 -13 -85 3 -3 9 11 13 32 10 55 23 73 50
73 14 0 25 5 25 10 0 6 -4 10 -9 10 -5 0 -13 9 -16 20 -13 42 -32 19 -50 -60z"/>
<path d="M1015 3390 c4 -6 11 -8 16 -5 14 9 11 15 -7 15 -8 0 -12 -5 -9 -10z"/>
<path d="M1065 3340 c-3 -5 -1 -10 4 -10 6 0 11 5 11 10 0 6 -2 10 -4 10 -3 0
-8 -4 -11 -10z"/>
<path d="M878 3305 c-6 -14 -17 -25 -23 -25 -7 0 -20 -9 -30 -20 -10 -11 -13
-20 -7 -20 6 0 14 5 17 10 4 6 15 8 25 5 14 -4 20 1 25 25 4 16 14 34 23 40
16 9 16 9 -1 10 -9 0 -23 -11 -29 -25z"/>
<path d="M1370 3323 c-14 -2 -32 -7 -40 -10 -27 -11 -44 -13 -111 -17 -37 -2
-79 -10 -94 -17 -30 -14 -45 -39 -25 -39 6 0 8 5 5 10 -3 6 -1 10 4 10 6 0 11
-5 11 -11 0 -8 20 -9 65 -4 42 4 65 3 65 -4 0 -5 -4 -13 -10 -16 -5 -3 -10
-12 -10 -18 0 -7 4 -6 10 3 8 12 10 11 10 -7 0 -16 5 -20 20 -16 11 3 20 10
20 17 0 6 22 23 49 38 26 15 54 34 61 43 16 19 30 19 30 0 0 -8 7 -15 15 -15
8 0 15 2 15 4 0 8 -50 56 -57 55 -4 -1 -19 -4 -33 -6z"/>
<path d="M980 3296 c0 -8 -6 -17 -12 -19 -8 -3 -8 -6 -2 -6 6 -1 19 8 29 19
16 18 16 20 2 20 -10 0 -17 -6 -17 -14z"/>
<path d="M901 3246 c-19 -20 -21 -26 -9 -26 19 0 41 25 36 40 -2 6 -14 0 -27
-14z"/>
<path d="M2350 3360 c0 -5 5 -10 11 -10 5 0 7 5 4 10 -3 6 -8 10 -11 10 -2 0
-4 -4 -4 -10z"/>
<path d="M2356 3319 c-12 -38 -13 -45 -4 -62 5 -9 24 -24 43 -32 19 -7 35 -21
35 -29 0 -9 7 -16 15 -16 30 0 53 -34 57 -84 4 -41 8 -50 26 -53 13 -2 25 5
32 17 6 11 17 20 25 20 7 0 15 5 17 12 7 20 73 -28 116 -86 34 -44 52 -58 106
-80 77 -30 84 -31 121 -12 48 25 116 29 164 10 39 -15 42 -19 37 -45 l-5 -29
45 7 c29 4 54 1 70 -7 31 -17 40 -7 47 48 3 29 1 47 -8 56 -8 7 -12 16 -9 19
3 3 -4 3 -16 0 -14 -4 -30 2 -48 19 -15 14 -49 37 -77 53 -27 15 -59 35 -70
45 -37 32 -170 107 -235 133 -71 28 -172 52 -262 62 -32 4 -72 14 -90 22 -44
23 -126 30 -132 12z"/>
<path d="M2286 3141 c-3 -5 0 -14 8 -20 11 -9 15 -9 19 1 6 20 27 -86 37 -196
6 -60 15 -103 22 -108 9 -5 9 -8 2 -8 -12 0 -3 -59 16 -105 4 -11 13 -40 20
-63 14 -55 68 -116 93 -106 12 4 16 13 12 25 -4 11 -3 19 2 19 4 0 17 7 27 15
19 15 19 15 -3 39 -12 13 -32 41 -44 63 -30 53 -47 74 -81 101 -24 18 -26 23
-12 28 15 6 15 8 1 30 -9 14 -13 28 -11 33 3 5 0 14 -8 20 -9 8 -13 40 -13
112 0 97 -1 102 -24 115 -28 16 -56 18 -63 5z"/>
<path d="M2507 3023 c-8 -14 -6 -67 5 -101 13 -43 34 -36 29 9 -2 19 -5 41 -5
49 -1 9 -6 22 -11 29 -5 10 -4 12 3 7 7 -4 12 -2 12 3 0 12 -26 15 -33 4z"/>
<path d="M3315 3010 c3 -5 8 -10 11 -10 2 0 4 5 4 10 0 6 -5 10 -11 10 -5 0
-7 -4 -4 -10z"/>
<path d="M3164 2586 c-6 -7 -11 -25 -11 -42 0 -16 -3 -40 -7 -54 -7 -31 1 -60
19 -60 7 0 27 17 44 38 l30 38 -28 -4 c-26 -4 -29 -1 -33 33 -2 20 0 38 4 41
10 6 11 24 1 24 -5 -1 -13 -7 -19 -14z"/>
<path d="M3355 2440 c3 -5 10 -10 16 -10 5 0 9 5 9 10 0 6 -7 10 -16 10 -8 0
-12 -4 -9 -10z"/>
<path d="M1410 2480 c-9 -6 -10 -10 -3 -10 6 0 15 5 18 10 8 12 4 12 -15 0z"/>
<path d="M1355 2419 c-4 -6 -5 -12 -2 -15 2 -3 7 2 10 11 7 17 1 20 -8 4z"/>
<path d="M1295 2390 c-3 -5 -1 -10 4 -10 6 0 11 5 11 10 0 6 -2 10 -4 10 -3 0
-8 -4 -11 -10z"/>
<path d="M1319 2373 c-13 -16 -12 -17 4 -4 9 7 17 15 17 17 0 8 -8 3 -21 -13z"/>
<path d="M1937 2052 c-15 -2 -25 -8 -22 -13 9 -14 -53 -66 -87 -73 -47 -9 -56
-7 -63 14 -7 23 -41 26 -64 6 -14 -13 -23 -12 -70 4 -30 11 -57 17 -61 15 -4
-2 -21 0 -39 5 -27 7 -31 6 -31 -10 0 -17 -2 -17 -30 -4 -16 9 -39 13 -49 9
-13 -4 -27 3 -45 22 -23 24 -29 26 -46 15 -11 -6 -28 -12 -39 -12 -10 0 -24
-7 -31 -15 -11 -13 -10 -14 5 -9 10 4 21 1 26 -7 5 -10 3 -16 -9 -21 -16 -6
-16 -7 1 -7 19 -1 23 -16 7 -26 -15 -9 14 -35 39 -35 11 0 24 -6 28 -14 4 -8
11 -15 16 -15 17 -1 107 -84 107 -99 0 -16 51 -39 73 -34 11 2 16 10 13 18 -7
17 1 22 49 27 38 5 66 14 125 40 14 6 36 12 50 13 33 2 99 3 130 3 51 -1 99
10 148 35 28 14 61 26 72 26 12 0 19 4 16 9 -4 5 -2 11 3 13 10 3 14 22 12 49
-1 14 -11 16 -61 14 -54 -3 -62 -1 -76 20 -18 27 -57 42 -97 37z m-487 -62 c0
-5 -7 -10 -16 -10 -8 0 -12 5 -9 10 3 6 10 10 16 10 5 0 9 -4 9 -10z m197 -96
c-3 -3 -12 -4 -19 -1 -8 3 -5 6 6 6 11 1 17 -2 13 -5z m-33 -40 c3 -8 2 -12
-4 -9 -6 3 -10 10 -10 16 0 14 7 11 14 -7z"/>
<path d="M824 1959 c-8 -13 13 -36 23 -25 4 4 1 11 -6 15 -11 7 -11 10 0 14 9
3 10 6 2 6 -6 1 -15 -4 -19 -10z"/>
<path d="M813 1865 c0 -8 7 -15 15 -15 12 0 12 3 2 15 -7 8 -13 15 -15 15 -1
0 -2 -7 -2 -15z"/>
<path d="M2020 1834 c0 -8 5 -12 10 -9 6 4 8 11 5 16 -9 14 -15 11 -15 -7z"/>
<path d="M780 1815 c-10 -12 -10 -15 3 -15 8 0 17 7 21 15 3 8 2 15 -3 15 -5
0 -14 -7 -21 -15z"/>
<path d="M2250 1760 c-17 -11 -8 -23 14 -18 9 2 12 8 8 15 -5 8 -13 9 -22 3z"/>
<path d="M780 1641 c0 -5 5 -13 10 -16 6 -3 10 -2 10 4 0 5 -4 13 -10 16 -5 3
-10 2 -10 -4z"/>
<path d="M1675 1570 c-3 -5 1 -10 9 -10 9 0 16 5 16 10 0 6 -4 10 -9 10 -6 0
-13 -4 -16 -10z"/>
<path d="M2545 1480 c-3 -5 -1 -10 4 -10 6 0 11 5 11 10 0 6 -2 10 -4 10 -3 0
-8 -4 -11 -10z"/>
<path d="M845 1160 c-3 -5 -1 -10 4 -10 6 0 11 5 11 10 0 6 -2 10 -4 10 -3 0
-8 -4 -11 -10z"/>
<path d="M2440 1001 c0 -6 6 -11 13 -11 7 0 8 -3 2 -8 -5 -4 -9 -16 -9 -27 1
-11 2 -27 3 -36 1 -12 11 -17 41 -17 22 0 40 4 40 10 0 5 6 8 13 5 25 -10 40
8 28 32 -9 16 -9 21 1 22 7 0 -9 7 -37 14 -27 8 -60 17 -72 21 -14 4 -23 2
-23 -5z m90 -46 c-7 -8 -16 -12 -21 -9 -13 8 -1 24 18 24 13 0 13 -3 3 -15z"/>
<path d="M2764 991 c3 -5 14 -11 25 -14 14 -3 18 -1 14 9 -3 8 -14 14 -25 14
-10 0 -17 -4 -14 -9z"/>
<path d="M2737 955 c-5 -10 0 -15 14 -15 12 0 19 5 17 12 -6 18 -25 20 -31 3z"/>
<path d="M2680 930 c0 -21 15 -27 25 -10 3 6 1 10 -5 10 -6 0 -8 5 -5 10 3 6
1 10 -4 10 -6 0 -11 -9 -11 -20z"/>
<path d="M2615 920 c3 -5 12 -7 20 -3 21 7 19 13 -6 13 -11 0 -18 -4 -14 -10z"/>
<path d="M2477 892 c-5 -7 -13 -10 -18 -7 -5 4 -9 1 -9 -4 0 -6 5 -11 11 -11
6 0 9 -9 6 -20 -6 -23 11 -28 19 -6 9 22 1 64 -9 48z"/>
<path d="M2575 880 c-3 -5 -1 -10 4 -10 6 0 11 5 11 10 0 6 -2 10 -4 10 -3 0
-8 -4 -11 -10z"/>
<path d="M2680 879 c0 -5 5 -7 10 -4 6 3 10 8 10 11 0 2 -4 4 -10 4 -5 0 -10
-5 -10 -11z"/>
<path d="M2530 854 c0 -8 5 -12 10 -9 6 4 8 11 5 16 -9 14 -15 11 -15 -7z"/>
<path d="M2497 840 c-3 -11 -1 -20 4 -20 5 0 9 9 9 20 0 11 -2 20 -4 20 -2 0
-6 -9 -9 -20z"/>
<path d="M2693 822 c0 -12 5 -22 9 -22 11 0 10 12 -2 30 -7 12 -9 10 -7 -8z"/>
<path d="M2362 808 c-15 -15 -16 -38 -2 -38 12 0 23 25 18 40 -2 7 -7 7 -16
-2z"/>
<path d="M2420 789 c0 -5 5 -7 10 -4 6 3 10 8 10 11 0 2 -4 4 -10 4 -5 0 -10
-5 -10 -11z"/>
<path d="M2496 771 c-3 -4 6 -6 19 -3 14 2 25 6 25 8 0 8 -39 4 -44 -5z"/>
<path d="M2683 772 c17 -7 16 -9 -3 -30 -18 -19 -18 -22 -4 -22 9 0 18 9 21
21 3 12 11 18 19 15 8 -3 14 -1 14 3 0 11 -25 21 -48 20 -15 0 -15 -1 1 -7z"/>
<path d="M2560 759 c0 -5 5 -7 10 -4 6 3 10 8 10 11 0 2 -4 4 -10 4 -5 0 -10
-5 -10 -11z"/>
<path d="M1960 649 c0 -5 5 -7 10 -4 6 3 10 8 10 11 0 2 -4 4 -10 4 -5 0 -10
-5 -10 -11z"/>
<path d="M2477 643 c-4 -3 -7 -11 -7 -17 0 -6 5 -5 12 2 6 6 9 14 7 17 -3 3
-9 2 -12 -2z"/>
<path d="M2640 631 c0 -6 -9 -11 -20 -11 -11 0 -20 -4 -20 -9 0 -10 48 -2 55
10 3 4 1 10 -5 14 -5 3 -10 1 -10 -4z"/>
<path d="M2147 490 c3 -11 9 -17 14 -14 14 8 10 34 -5 34 -9 0 -12 -7 -9 -20z"/>
<path d="M4780 2880 c0 -11 5 -20 10 -20 6 0 10 9 10 20 0 11 -4 20 -10 20 -5
0 -10 -9 -10 -20z"/>
<path d="M4440 2820 c0 -5 5 -10 10 -10 6 0 10 5 10 10 0 6 -4 10 -10 10 -5 0
-10 -4 -10 -10z"/>
<path d="M4620 2656 c0 -7 7 -19 15 -26 16 -13 20 -3 9 24 -8 20 -24 21 -24 2z"/>
<path d="M4574 2629 c-3 -6 -1 -16 5 -22 6 -6 11 -20 11 -31 1 -20 1 -20 11
-2 8 13 8 20 0 25 -7 4 -9 15 -5 24 7 19 -11 23 -22 6z"/>
<path d="M4635 2580 c3 -5 8 -10 11 -10 2 0 4 5 4 10 0 6 -5 10 -11 10 -5 0
-7 -4 -4 -10z"/>
<path d="M4660 2551 c0 -12 29 -35 36 -28 4 3 -1 13 -9 22 -17 17 -27 19 -27
6z"/>
<path d="M4750 2520 c-9 -6 -10 -10 -3 -10 6 0 15 5 18 10 8 12 4 12 -15 0z"/>
<path d="M4796 2497 c3 -10 9 -15 12 -12 3 3 0 11 -7 18 -10 9 -11 8 -5 -6z"/>
<path d="M4816 2363 c-6 -14 -5 -15 5 -6 7 7 10 15 7 18 -3 3 -9 -2 -12 -12z"/>
<path d="M3780 2300 c0 -11 5 -20 10 -20 6 0 10 9 10 20 0 11 -4 20 -10 20 -5
0 -10 -9 -10 -20z"/>
<path d="M4127 2284 c6 -15 23 -19 23 -5 0 5 -7 11 -14 14 -10 4 -13 1 -9 -9z"/>
<path d="M3956 2251 c-3 -5 0 -11 8 -14 15 -6 26 1 26 15 0 11 -27 10 -34 -1z"/>
<path d="M4505 2170 c-4 -6 6 -10 22 -10 22 0 25 2 13 10 -19 12 -27 12 -35 0z"/>
<path d="M3740 2145 c-14 -16 -10 -18 14 -9 9 3 16 10 16 15 0 14 -16 11 -30
-6z"/>
<path d="M3915 2030 c-3 -5 -1 -10 4 -10 6 0 11 5 11 10 0 6 -2 10 -4 10 -3 0
-8 -4 -11 -10z"/>
<path d="M3957 2023 c-13 -12 -7 -23 13 -23 11 0 20 7 20 15 0 15 -21 21 -33
8z"/>
<path d="M4147 1973 c-13 -12 -7 -33 8 -33 8 0 15 9 15 20 0 20 -11 26 -23 13z"/>
<path d="M3765 1939 c-10 -15 3 -25 16 -12 7 7 7 13 1 17 -6 3 -14 1 -17 -5z"/>
<path d="M1590 1030 c0 -5 9 -10 20 -10 11 0 20 5 20 10 0 6 -9 10 -20 10 -11
0 -20 -4 -20 -10z"/>
<path d="M50 4980 c0 -5 5 -10 11 -10 5 0 7 5 4 10 -3 6 -8 10 -11 10 -2 0 -4
-4 -4 -10z"/>
<path d="M275 4910 c-3 -5 -1 -10 4 -10 6 0 11 5 11 10 0 6 -2 10 -4 10 -3 0
-8 -4 -11 -10z"/>
<path d="M878 4873 c7 -3 16 -2 19 1 4 3 -2 6 -13 5 -11 0 -14 -3 -6 -6z"/>
<path d="M75 4760 c-3 -5 1 -10 9 -10 8 0 18 5 21 10 3 6 -1 10 -9 10 -8 0
-18 -4 -21 -10z"/>
<path d="M345 4510 c-3 -5 -1 -10 4 -10 6 0 11 5 11 10 0 6 -2 10 -4 10 -3 0
-8 -4 -11 -10z"/>
<path d="M190 4490 c0 -5 7 -10 15 -10 8 0 15 5 15 10 0 6 -7 10 -15 10 -8 0
-15 -4 -15 -10z"/>
<path d="M150 4449 c0 -5 5 -7 10 -4 6 3 10 8 10 11 0 2 -4 4 -10 4 -5 0 -10
-5 -10 -11z"/>
<path d="M25 3786 c-23 -34 -37 -184 -16 -172 6 4 11 13 11 20 0 7 9 31 20 53
15 32 18 50 12 84 l-8 44 -19 -29z"/>
</g>
</svg>
